<svg height="40" viewBox="0 0 40 40" width="40" xmlns="http://www.w3.org/2000/svg"><path d="m40 2.20535714v35.58035716c0 1.2232143-.9910714 2.2053571-2.2053571 2.2053571h-10.1964286v-15.4821428h5.1964286l.7767857-6.0357143h-5.9821429v-3.8571429c0-1.75.4821429-2.9375 2.9910714-2.9375h3.1964286v-5.40178569c-.5535714-.07142857-2.4464286-.24107142-4.6607143-.24107142-4.6071428 0-7.7678571 2.8125-7.7678571 7.98214281v4.4553572h-5.2142857v6.0357143h5.2142857v15.4910714h-19.14285716c-1.21428571 0-2.20535714-.9910714-2.20535714-2.2053571v-35.58928576c0-1.21428571.99107143-2.20535714 2.20535714-2.20535714h35.58035716c1.2232143 0 2.2142857.99107143 2.2142857 2.20535714z" fill="#fff"/></svg>