<svg height="40" viewBox="0 0 40 40" width="40" xmlns="http://www.w3.org/2000/svg"><path d="m20.0088889 9.79955457c-5.6533333 0-10.21333334 4.57015593-10.21333334 10.23608013 0 5.6659243 4.56000004 10.2360802 10.21333334 10.2360802s10.2133333-4.5701559 10.2133333-10.2360802c0-5.6659242-4.56-10.23608013-10.2133333-10.23608013zm0 16.89086863c-3.6533333 0-6.64-2.9844098-6.64-6.6547885 0-3.6703786 2.9777778-6.6547884 6.64-6.6547884s6.64 2.9844098 6.64 6.6547884c0 3.6703787-2.9866667 6.6547885-6.64 6.6547885zm13.0133333-17.30957687c0 1.32739417-1.0666666 2.38752787-2.3822222 2.38752787-1.3244444 0-2.3822222-1.0690424-2.3822222-2.38752787 0-1.31848553 1.0666666-2.38752784 2.3822222-2.38752784s2.3822222 1.06904231 2.3822222 2.38752784zm6.7644445 2.42316257c-.1511111-3.19821825-.88-6.03118039-3.2177778-8.36525612-2.3288889-2.33407572-5.1555556-3.06458797-8.3466667-3.22494432-3.2888889-.1870824-13.1466666-.1870824-16.4355555 0-3.18222226.15144767-6.00888892.88195991-8.3466667 3.21603564-2.33777778 2.33407572-3.05777778 5.16703786-3.21777778 8.3652561-.18666666 3.2962138-.18666666 13.1759466 0 16.4721604.15111111 3.1982182.88 6.0311804 3.21777778 8.3652561s5.15555556 3.064588 8.3466667 3.2249443c3.2888889.1870824 13.1466666.1870824 16.4355555 0 3.1911111-.1514476 6.0177778-.8819599 8.3466667-3.2249443 2.3288889-2.3340757 3.0577778-5.1670379 3.2177778-8.3652561.1866666-3.2962138.1866666-13.1670379 0-16.4632517zm-4.2488889 20c-.6933334 1.7461025-2.0355556 3.091314-3.7866667 3.7951002-2.6222222 1.0423163-8.8444444.8017818-11.7422222.8017818s-9.1288889.2316258-11.74222223-.8017818c-1.74222223-.6948775-3.08444445-2.0400891-3.78666667-3.7951002-1.04-2.6280624-.8-8.8641425-.8-11.7683742 0-2.9042316-.23111111-9.1492204.8-11.76837412.69333333-1.74610245 2.03555556-3.09131403 3.78666667-3.79510022 2.62222223-1.04231626 8.84444443-.80178174 11.74222223-.80178174s9.1288889-.23162584 11.7422222.80178174c1.7422222.6948775 3.0844445 2.04008908 3.7866667 3.79510022 1.04 2.62806232.8 8.86414252.8 11.76837412 0 2.9042317.24 9.1492205-.8 11.7683742z" fill="#fff"/></svg>